{"asset":{"version":"2.0","generator":"Blockbench 4.11.2 glTF exporter"},"scenes":[{"nodes":[12],"name":"blockbench_export"}],"scene":0,"nodes":[{"rotation":[0.7071067811865475,0,0,0.7071067811865476],"name":"Hoja1","mesh":0},{"rotation":[0.7071067811865475,0,0,0.7071067811865476],"translation":[0.125,-1.3125,0.0625],"name":"Tronco1","mesh":1},{"translation":[-0.125,1.625,-0.0625],"name":"Cara1","children":[0,1]},{"rotation":[0.7071067811865475,0,0,0.7071067811865476],"name":"Hoja2","mesh":2},{"rotation":[0.7071067811865475,0,0,0.7071067811865476],"translation":[0.125,-1.3125,0.0625],"name":"Tronco2","mesh":3},{"rotation":[0,0.3826834323650898,0,0.9238795325112867],"translation":[-0.125,1.625,0],"name":"Cara2","children":[3,4]},{"rotation":[0.7071067811865475,0,0,0.7071067811865476],"name":"Hoja3","mesh":4},{"rotation":[0.7071067811865475,0,0,0.7071067811865476],"translation":[0.125,-1.3125,0.0625],"name":"Tronco3","mesh":5},{"rotation":[0,0.7071067811865475,0,0.7071067811865476],"translation":[-0.0625,1.625,0.0625],"name":"Cara3","children":[6,7]},{"rotation":[0.7071067811865475,0,0,0.7071067811865476],"name":"Hoja4","mesh":6},{"rotation":[0.7071067811865475,0,0,0.7071067811865476],"translation":[0.125,-1.3125,0.0625],"name":"Tronco4","mesh":7},{"rotation":[0,0.9238795325112867,0,0.38268343236508984],"translation":[0,1.625,0.0625],"name":"Cara4","children":[9,10]},{"children":[2,5,8,11]}],"bufferViews":[{"buffer":0,"byteOffset":0,"byteLength":48,"target":34962,"byteStride":12},{"buffer":0,"byteOffset":48,"byteLength":48,"target":34962,"byteStride":12},{"buffer":0,"byteOffset":96,"byteLength":32,"target":34962,"byteStride":8},{"buffer":0,"byteOffset":128,"byteLength":12,"target":34963},{"buffer":0,"byteOffset":140,"byteLength":48,"target":34962,"byteStride":12},{"buffer":0,"byteOffset":188,"byteLength":48,"target":34962,"byteStride":12},{"buffer":0,"byteOffset":236,"byteLength":32,"target":34962,"byteStride":8},{"buffer":0,"byteOffset":268,"byteLength":12,"target":34963},{"buffer":0,"byteOffset":280,"byteLength":48,"target":34962,"byteStride":12},{"buffer":0,"byteOffset":328,"byteLength":48,"target":34962,"byteStride":12},{"buffer":0,"byteOffset":376,"byteLength":32,"target":34962,"byteStride":8},{"buffer":0,"byteOffset":408,"byteLength":12,"target":34963},{"buffer":0,"byteOffset":420,"byteLength":48,"target":34962,"byteStride":12},{"buffer":0,"byteOffset":468,"byteLength":48,"target":34962,"byteStride":12},{"buffer":0,"byteOffset":516,"byteLength":32,"target":34962,"byteStride":8},{"buffer":0,"byteOffset":548,"byteLength":12,"target":34963},{"buffer":0,"byteOffset":560,"byteLength":48,"target":34962,"byteStride":12},{"buffer":0,"byteOffset":608,"byteLength":48,"target":34962,"byteStride":12},{"buffer":0,"byteOffset":656,"byteLength":32,"target":34962,"byteStride":8},{"buffer":0,"byteOffset":688,"byteLength":12,"target":34963},{"buffer":0,"byteOffset":700,"byteLength":48,"target":34962,"byteStride":12},{"buffer":0,"byteOffset":748,"byteLength":48,"target":34962,"byteStride":12},{"buffer":0,"byteOffset":796,"byteLength":32,"target":34962,"byteStride":8},{"buffer":0,"byteOffset":828,"byteLength":12,"target":34963},{"buffer":0,"byteOffset":840,"byteLength":48,"target":34962,"byteStride":12},{"buffer":0,"byteOffset":888,"byteLength":48,"target":34962,"byteStride":12},{"buffer":0,"byteOffset":936,"byteLength":32,"target":34962,"byteStride":8},{"buffer":0,"byteOffset":968,"byteLength":12,"target":34963},{"buffer":0,"byteOffset":980,"byteLength":48,"target":34962,"byteStride":12},{"buffer":0,"byteOffset":1028,"byteLength":48,"target":34962,"byteStride":12},{"buffer":0,"byteOffset":1076,"byteLength":32,"target":34962,"byteStride":8},{"buffer":0,"byteOffset":1108,"byteLength":12,"target":34963}],"buffers":[{"byteLength":1120,"uri":"data:application/octet-stream;base64,"}],"accessors":[{"bufferView":0,"componentType":5126,"count":4,"max":[1.25,0.09375,1.125],"min":[-1.125,0.03125,-1.125],"type":"VEC3"},{"bufferView":1,"componentType":5126,"count":4,"max":[-0.02630668133497238,0.9996539354324341,0],"min":[-0.02630668133497238,0.9996539354324341,0],"type":"VEC3"},{"bufferView":2,"componentType":5126,"count":4,"max":[0.59375,0.59375],"min":[0,0],"type":"VEC2"},{"bufferView":3,"componentType":5123,"count":6,"max":[3],"min":[0],"type":"SCALAR"},{"bufferView":4,"componentType":5126,"count":4,"max":[0.5625,0,0.34375],"min":[-0.5625,0,-0.34375],"type":"VEC3"},{"bufferView":5,"componentType":5126,"count":4,"max":[0,1,0],"min":[0,1,0],"type":"VEC3"},{"bufferView":6,"componentType":5126,"count":4,"max":[0.5625,0.34375],"min":[0,0],"type":"VEC2"},{"bufferView":7,"componentType":5123,"count":6,"max":[3],"min":[0],"type":"SCALAR"},{"bufferView":8,"componentType":5126,"count":4,"max":[1.25,0.09375,1.125],"min":[-1.125,0.03125,-1.125],"type":"VEC3"},{"bufferView":9,"componentType":5126,"count":4,"max":[-0.02630668133497238,0.9996539354324341,0],"min":[-0.02630668133497238,0.9996539354324341,0],"type":"VEC3"},{"bufferView":10,"componentType":5126,"count":4,"max":[0.59375,0.59375],"min":[0,0],"type":"VEC2"},{"bufferView":11,"componentType":5123,"count":6,"max":[3],"min":[0],"type":"SCALAR"},{"bufferView":12,"componentType":5126,"count":4,"max":[0.5625,0,0.34375],"min":[-0.5625,0,-0.34375],"type":"VEC3"},{"bufferView":13,"componentType":5126,"count":4,"max":[0,1,0],"min":[0,1,0],"type":"VEC3"},{"bufferView":14,"componentType":5126,"count":4,"max":[0.5625,0.34375],"min":[0,0],"type":"VEC2"},{"bufferView":15,"componentType":5123,"count":6,"max":[3],"min":[0],"type":"SCALAR"},{"bufferView":16,"componentType":5126,"count":4,"max":[1.25,0.09375,1.125],"min":[-1.125,0.03125,-1.125],"type":"VEC3"},{"bufferView":17,"componentType":5126,"count":4,"max":[-0.02630668133497238,0.9996539354324341,0],"min":[-0.02630668133497238,0.9996539354324341,0],"type":"VEC3"},{"bufferView":18,"componentType":5126,"count":4,"max":[0.59375,0.59375],"min":[0,0],"type":"VEC2"},{"bufferView":19,"componentType":5123,"count":6,"max":[3],"min":[0],"type":"SCALAR"},{"bufferView":20,"componentType":5126,"count":4,"max":[0.5625,0,0.34375],"min":[-0.5625,0,-0.34375],"type":"VEC3"},{"bufferView":21,"componentType":5126,"count":4,"max":[0,1,0],"min":[0,1,0],"type":"VEC3"},{"bufferView":22,"componentType":5126,"count":4,"max":[0.5625,0.34375],"min":[0,0],"type":"VEC2"},{"bufferView":23,"componentType":5123,"count":6,"max":[3],"min":[0],"type":"SCALAR"},{"bufferView":24,"componentType":5126,"count":4,"max":[1.25,0.09375,1.125],"min":[-1.125,0.03125,-1.125],"type":"VEC3"},{"bufferView":25,"componentType":5126,"count":4,"max":[-0.02630668133497238,0.9996539354324341,0],"min":[-0.02630668133497238,0.9996539354324341,0],"type":"VEC3"},{"bufferView":26,"componentType":5126,"count":4,"max":[0.59375,0.59375],"min":[0,0],"type":"VEC2"},{"bufferView":27,"componentType":5123,"count":6,"max":[3],"min":[0],"type":"SCALAR"},{"bufferView":28,"componentType":5126,"count":4,"max":[0.5625,0,0.34375],"min":[-0.5625,0,-0.34375],"type":"VEC3"},{"bufferView":29,"componentType":5126,"count":4,"max":[0,1,0],"min":[0,1,0],"type":"VEC3"},{"bufferView":30,"componentType":5126,"count":4,"max":[0.5625,0.34375],"min":[0,0],"type":"VEC2"},{"bufferView":31,"componentType":5123,"count":6,"max":[3],"min":[0],"type":"SCALAR"}],"materials":[{"pbrMetallicRoughness":{"metallicFactor":0,"roughnessFactor":1,"baseColorTexture":{"index":0}},"alphaMode":"MASK","alphaCutoff":0.05,"doubleSided":true},{"pbrMetallicRoughness":{"metallicFactor":0,"roughnessFactor":1,"baseColorTexture":{"index":1}},"alphaMode":"MASK","alphaCutoff":0.05,"doubleSided":true}],"textures":[{"sampler":0,"source":0,"name":"Hojas_texture.png"},{"sampler":1,"source":1,"name":"texture"}],"samplers":[{"magFilter":9728,"minFilter":9728,"wrapS":33071,"wrapT":33071},{"magFilter":9728,"minFilter":9728,"wrapS":33071,"wrapT":33071}],"images":[{"mimeType":"image/png","uri":"data:image/png;base64,"},{"mimeType":"image/png","uri":"data:image/png;base64,"}],"meshes":[{"primitives":[{"mode":4,"attributes":{"POSITION":0,"NORMAL":1,"TEXCOORD_0":2},"indices":3,"material":0}]},{"primitives":[{"mode":4,"attributes":{"POSITION":4,"NORMAL":5,"TEXCOORD_0":6},"indices":7,"material":1}]},{"primitives":[{"mode":4,"attributes":{"POSITION":8,"NORMAL":9,"TEXCOORD_0":10},"indices":11,"material":0}]},{"primitives":[{"mode":4,"attributes":{"POSITION":12,"NORMAL":13,"TEXCOORD_0":14},"indices":15,"material":1}]},{"primitives":[{"mode":4,"attributes":{"POSITION":16,"NORMAL":17,"TEXCOORD_0":18},"indices":19,"material":0}]},{"primitives":[{"mode":4,"attributes":{"POSITION":20,"NORMAL":21,"TEXCOORD_0":22},"indices":23,"material":1}]},{"primitives":[{"mode":4,"attributes":{"POSITION":24,"NORMAL":25,"TEXCOORD_0":26},"indices":27,"material":0}]},{"primitives":[{"mode":4,"attributes":{"POSITION":28,"NORMAL":29,"TEXCOORD_0":30},"indices":31,"material":1}]}]}