# Made in Blockbench 4.11.2
mtllib Arbol.mtl

o Hoja1
v 1.125 0.500000000000006 0.03125000000000028
v 1.125 2.749999999999994 0.031249999999999778
v -1.25 0.500000000000006 -0.031249999999999716
v -1.25 2.749999999999994 -0.031250000000000215
vt 0.59375 0.40625
vt 0.59375 1
vt 0 1
vt 0 0.40625
vn -0.026306682088232818 2.219677595844621e-16 0.9996539193528473
usemtl m_e66f6020-f510-04a6-5fc3-daf2f593265e
f 1/1/1 2/2/1 4/3/1 3/4/1
o Tronco1
v 0.5625 -0.03125 7.632783294297951e-17
v 0.5625 0.65625 -7.632783294297951e-17
v -0.5625 -0.03125 7.632783294297951e-17
v -0.5625 0.65625 -7.632783294297951e-17
vt 0.5625 0.65625
vt 0.5625 1
vt 0 1
vt 0 0.65625
vn 0 2.220446049250313e-16 1
usemtl m_927bd188-c0dd-920f-829b-0b52965c114e
f 5/5/2 6/6/2 8/7/2 7/8/2
o Hoja2
v 0.8251747372194234 0.500000000000006 -0.8175922157469454
v 0.8251747372194229 2.749999999999994 -0.8175922157469458
v -0.898398041922786 0.500000000000006 0.817592215746946
v -0.8983980419227865 2.749999999999994 0.8175922157469455
vt 0.59375 0.40625
vt 0.59375 1
vt 0 1
vt 0 0.40625
vn 0.6882604319190003 2.219677595844621e-16 0.7254636985092164
usemtl m_e66f6020-f510-04a6-5fc3-daf2f593265e
f 9/9/3 10/10/3 12/11/3 11/12/3
o Tronco2
v 0.4053300858899107 -0.03125 -0.4419417382415922
v 0.4053300858899106 0.65625 -0.44194173824159233
v -0.39016504294495524 -0.03125 0.35355339059327384
v -0.39016504294495535 0.65625 0.35355339059327373
vt 0.5625 0.65625
vt 0.5625 1
vt 0 1
vt 0 0.65625
vn 0.7071067811865476 2.220446049250313e-16 0.7071067811865475
usemtl m_927bd188-c0dd-920f-829b-0b52965c114e
f 13/13/4 14/14/4 16/15/4 15/16/4
o Hoja3
v 0.031250000000000555 0.500000000000006 -1.1875
v 0.031250000000000056 2.749999999999994 -1.1875
v -0.031249999999999965 0.500000000000006 1.1875
v -0.031250000000000465 2.749999999999994 1.1875
vt 0.59375 0.40625
vt 0.59375 1
vt 0 1
vt 0 0.40625
vn 0.9996539193528473 2.219677595844621e-16 0.02630668208823304
usemtl m_e66f6020-f510-04a6-5fc3-daf2f593265e
f 17/17/5 18/18/5 20/19/5 19/20/5
o Tronco3
v 2.2898349882893854e-16 -0.03125 -0.625
v 7.632783294297951e-17 0.65625 -0.625
v -2.0816681711721685e-17 -0.03125 0.5
v -1.734723475976807e-16 0.65625 0.5
vt 0.5625 0.65625
vt 0.5625 1
vt 0 1
vt 0 0.65625
vn 1 2.220446049250313e-16 2.220446049250313e-16
usemtl m_927bd188-c0dd-920f-829b-0b52965c114e
f 21/21/6 22/22/6 24/23/6 23/24/6
o Hoja4
v -0.8175922157469453 0.500000000000006 -0.8876747372194237
v -0.8175922157469457 2.749999999999994 -0.8876747372194232
v 0.8175922157469458 0.500000000000006 0.8358980419227863
v 0.8175922157469454 2.749999999999994 0.8358980419227867
vt 0.59375 0.40625
vt 0.59375 1
vt 0 1
vt 0 0.40625
vn 0.7254636985092165 2.2196775958446204e-16 -0.6882604319190001
usemtl m_e66f6020-f510-04a6-5fc3-daf2f593265e
f 25/25/7 26/26/7 28/27/7 27/28/7
o Tronco4
v -0.4419417382415921 -0.03125 -0.4678300858899108
v -0.4419417382415922 0.65625 -0.4678300858899107
v 0.35355339059327384 -0.03125 0.32766504294495535
v 0.35355339059327373 0.65625 0.32766504294495546
vt 0.5625 0.65625
vt 0.5625 1
vt 0 1
vt 0 0.65625
vn 0.7071067811865477 2.220446049250313e-16 -0.7071067811865475
usemtl m_927bd188-c0dd-920f-829b-0b52965c114e
f 29/29/8 30/30/8 32/31/8 31/32/8